<svg width="299" height="299" viewBox="0 0 299 299" fill="none" xmlns="http://www.w3.org/2000/svg">
<mask id="mask0_636_1370" style="mask-type:alpha" maskUnits="userSpaceOnUse" x="0" y="0" width="299" height="299">
<circle cx="149.475" cy="149.475" r="149.475" fill="#C4C4C4" fill-opacity="0.1"/>
</mask>
<g mask="url(#mask0_636_1370)">
<path d="M149 2.03803C153.455 -6.83396 157.91 -6.83396 162.365 2.03803C166.82 10.91 171.275 10.91 175.73 2.03803C180.185 -6.83396 184.64 -6.83396 189.095 2.03803C193.55 10.91 198.005 10.91 202.46 2.03803C206.914 -6.83396 211.369 -6.83396 215.824 2.03803C220.279 10.91 224.734 10.91 229.189 2.03803C233.644 -6.83396 238.099 -6.83396 242.554 2.03803C247.009 10.91 251.464 10.91 255.919 2.03803C260.374 -6.83396 264.829 -6.83396 269.284 2.03803C273.739 10.91 278.194 10.91 282.649 2.03803C287.104 -6.83396 291.559 -6.83396 296.014 2.03803C300.469 10.91 304.924 10.91 309.379 2.03803C313.833 -6.83396 318.288 -6.83396 322.743 2.03803C327.198 10.91 331.653 10.91 336.108 2.03803C340.563 -6.83396 345.018 -6.83396 349.473 2.03803C353.928 10.91 358.383 10.91 362.838 2.03803" stroke="white" stroke-width="3.1635"/>
<path d="M149 297.309C153.455 288.437 157.91 288.437 162.365 297.309C166.82 306.181 171.275 306.181 175.73 297.309C180.185 288.437 184.64 288.437 189.095 297.309C193.55 306.181 198.005 306.181 202.46 297.309C206.914 288.437 211.369 288.437 215.824 297.309C220.279 306.181 224.734 306.181 229.189 297.309C233.644 288.437 238.099 288.437 242.554 297.309C247.009 306.181 251.464 306.181 255.919 297.309C260.374 288.437 264.829 288.437 269.284 297.309C273.739 306.181 278.194 306.181 282.649 297.309C287.104 288.437 291.559 288.437 296.014 297.309C300.469 306.181 304.924 306.181 309.379 297.309C313.833 288.437 318.288 288.437 322.743 297.309C327.198 306.181 331.653 306.181 336.108 297.309C340.563 288.437 345.018 288.437 349.473 297.309C353.928 306.181 358.383 306.181 362.838 297.309" stroke="white" stroke-width="3.1635"/>
<path d="M149 11.5632C153.455 2.69118 157.91 2.69118 162.365 11.5632C166.82 20.4352 171.275 20.4352 175.73 11.5632C180.185 2.69118 184.64 2.69118 189.095 11.5632C193.55 20.4352 198.005 20.4352 202.459 11.5632C206.914 2.69118 211.369 2.69118 215.824 11.5632C220.279 20.4352 224.734 20.4352 229.189 11.5632C233.644 2.69118 238.099 2.69118 242.554 11.5632C247.009 20.4352 251.464 20.4352 255.919 11.5632C260.374 2.69118 264.829 2.69118 269.284 11.5632C273.739 20.4352 278.194 20.4352 282.649 11.5632C287.104 2.69118 291.559 2.69118 296.014 11.5632C300.469 20.4352 304.924 20.4352 309.378 11.5632C313.833 2.69118 318.288 2.69118 322.743 11.5632C327.198 20.4352 331.653 20.4352 336.108 11.5632C340.563 2.69118 345.018 2.69118 349.473 11.5632C353.928 20.4352 358.383 20.4352 362.838 11.5632" stroke="white" stroke-width="3.1635"/>
<path d="M149 21.0878C153.455 12.2158 157.91 12.2158 162.365 21.0878C166.82 29.9598 171.275 29.9598 175.73 21.0878C180.185 12.2158 184.64 12.2158 189.095 21.0878C193.55 29.9598 198.005 29.9598 202.459 21.0878C206.914 12.2158 211.369 12.2158 215.824 21.0878C220.279 29.9598 224.734 29.9598 229.189 21.0878C233.644 12.2158 238.099 12.2158 242.554 21.0878C247.009 29.9598 251.464 29.9598 255.919 21.0878C260.374 12.2158 264.829 12.2158 269.284 21.0878C273.739 29.9598 278.194 29.9598 282.649 21.0878C287.104 12.2158 291.559 12.2158 296.014 21.0878C300.469 29.9598 304.924 29.9598 309.378 21.0878C313.833 12.2158 318.288 12.2158 322.743 21.0878C327.198 29.9598 331.653 29.9598 336.108 21.0878C340.563 12.2158 345.018 12.2158 349.473 21.0878C353.928 29.9598 358.383 29.9598 362.838 21.0878" stroke="white" stroke-width="3.1635"/>
<path d="M149 30.613C153.455 21.741 157.91 21.741 162.365 30.613C166.82 39.485 171.275 39.485 175.73 30.613C180.185 21.741 184.64 21.741 189.095 30.613C193.55 39.485 198.005 39.485 202.459 30.613C206.914 21.741 211.369 21.741 215.824 30.613C220.279 39.485 224.734 39.485 229.189 30.613C233.644 21.741 238.099 21.741 242.554 30.613C247.009 39.485 251.464 39.485 255.919 30.613C260.374 21.741 264.829 21.741 269.284 30.613C273.739 39.485 278.194 39.485 282.649 30.613C287.104 21.741 291.559 21.741 296.014 30.613C300.469 39.485 304.924 39.485 309.378 30.613C313.833 21.741 318.288 21.741 322.743 30.613C327.198 39.485 331.653 39.485 336.108 30.613C340.563 21.741 345.018 21.741 349.473 30.613C353.928 39.485 358.383 39.485 362.838 30.613" stroke="white" stroke-width="3.1635"/>
<path d="M149 40.1384C153.455 31.2664 157.91 31.2664 162.365 40.1384C166.82 49.0104 171.275 49.0104 175.73 40.1384C180.185 31.2664 184.64 31.2664 189.095 40.1384C193.55 49.0104 198.005 49.0104 202.459 40.1384C206.914 31.2664 211.369 31.2664 215.824 40.1384C220.279 49.0104 224.734 49.0104 229.189 40.1384C233.644 31.2664 238.099 31.2664 242.554 40.1384C247.009 49.0104 251.464 49.0104 255.919 40.1384C260.374 31.2664 264.829 31.2664 269.284 40.1384C273.739 49.0104 278.194 49.0104 282.649 40.1384C287.104 31.2664 291.559 31.2664 296.014 40.1384C300.469 49.0104 304.924 49.0104 309.378 40.1384C313.833 31.2664 318.288 31.2664 322.743 40.1384C327.198 49.0104 331.653 49.0104 336.108 40.1384C340.563 31.2664 345.018 31.2664 349.473 40.1384C353.928 49.0104 358.383 49.0104 362.838 40.1384" stroke="white" stroke-width="3.1635"/>
<path d="M149 49.6623C153.455 40.7903 157.91 40.7903 162.365 49.6623C166.82 58.5343 171.275 58.5343 175.73 49.6623C180.185 40.7903 184.64 40.7903 189.095 49.6623C193.55 58.5343 198.005 58.5343 202.459 49.6623C206.914 40.7903 211.369 40.7903 215.824 49.6623C220.279 58.5343 224.734 58.5343 229.189 49.6623C233.644 40.7903 238.099 40.7903 242.554 49.6623C247.009 58.5343 251.464 58.5343 255.919 49.6623C260.374 40.7903 264.829 40.7903 269.284 49.6623C273.739 58.5343 278.194 58.5343 282.649 49.6623C287.104 40.7903 291.559 40.7903 296.014 49.6623C300.469 58.5343 304.924 58.5343 309.378 49.6623C313.833 40.7903 318.288 40.7903 322.743 49.6623C327.198 58.5343 331.653 58.5343 336.108 49.6623C340.563 40.7903 345.018 40.7903 349.473 49.6623C353.928 58.5343 358.383 58.5343 362.838 49.6623" stroke="white" stroke-width="3.1635"/>
<path d="M149 59.1874C153.455 50.3155 157.91 50.3155 162.365 59.1874C166.82 68.0594 171.275 68.0594 175.73 59.1874C180.185 50.3155 184.64 50.3155 189.095 59.1874C193.55 68.0594 198.005 68.0594 202.459 59.1874C206.914 50.3155 211.369 50.3155 215.824 59.1874C220.279 68.0594 224.734 68.0594 229.189 59.1874C233.644 50.3155 238.099 50.3155 242.554 59.1874C247.009 68.0594 251.464 68.0594 255.919 59.1874C260.374 50.3155 264.829 50.3155 269.284 59.1874C273.739 68.0594 278.194 68.0594 282.649 59.1874C287.104 50.3155 291.559 50.3155 296.014 59.1874C300.469 68.0594 304.924 68.0594 309.378 59.1874C313.833 50.3155 318.288 50.3155 322.743 59.1874C327.198 68.0594 331.653 68.0594 336.108 59.1874C340.563 50.3155 345.018 50.3155 349.473 59.1874C353.928 68.0594 358.383 68.0594 362.838 59.1874" stroke="white" stroke-width="3.1635"/>
<path d="M149 68.7121C153.455 59.8401 157.91 59.8401 162.365 68.7121C166.82 77.5841 171.275 77.5841 175.73 68.7121C180.185 59.8401 184.64 59.8401 189.095 68.7121C193.55 77.5841 198.005 77.5841 202.459 68.7121C206.914 59.8401 211.369 59.8401 215.824 68.7121C220.279 77.5841 224.734 77.5841 229.189 68.7121C233.644 59.8401 238.099 59.8401 242.554 68.7121C247.009 77.5841 251.464 77.5841 255.919 68.7121C260.374 59.8401 264.829 59.8401 269.284 68.7121C273.739 77.5841 278.194 77.5841 282.649 68.7121C287.104 59.8401 291.559 59.8401 296.014 68.7121C300.469 77.5841 304.924 77.5841 309.378 68.7121C313.833 59.8401 318.288 59.8401 322.743 68.7121C327.198 77.5841 331.653 77.5841 336.108 68.7121C340.563 59.8401 345.018 59.8401 349.473 68.7121C353.928 77.5841 358.383 77.5841 362.838 68.7121" stroke="white" stroke-width="3.1635"/>
<path d="M149 78.2372C153.455 69.3653 157.91 69.3653 162.365 78.2372C166.82 87.1092 171.275 87.1092 175.73 78.2372C180.185 69.3653 184.64 69.3653 189.095 78.2372C193.55 87.1092 198.005 87.1092 202.459 78.2372C206.914 69.3653 211.369 69.3653 215.824 78.2372C220.279 87.1092 224.734 87.1092 229.189 78.2372C233.644 69.3653 238.099 69.3653 242.554 78.2372C247.009 87.1092 251.464 87.1092 255.919 78.2372C260.374 69.3653 264.829 69.3653 269.284 78.2372C273.739 87.1092 278.194 87.1092 282.649 78.2372C287.104 69.3653 291.559 69.3653 296.014 78.2372C300.469 87.1092 304.924 87.1092 309.378 78.2372C313.833 69.3653 318.288 69.3653 322.743 78.2372C327.198 87.1092 331.653 87.1092 336.108 78.2372C340.563 69.3653 345.018 69.3653 349.473 78.2372C353.928 87.1092 358.383 87.1092 362.838 78.2372" stroke="white" stroke-width="3.1635"/>
<path d="M149 87.7624C153.455 78.8904 157.91 78.8904 162.365 87.7624C166.82 96.6344 171.275 96.6344 175.73 87.7624C180.185 78.8904 184.64 78.8904 189.095 87.7624C193.55 96.6344 198.005 96.6344 202.459 87.7624C206.914 78.8904 211.369 78.8904 215.824 87.7624C220.279 96.6344 224.734 96.6344 229.189 87.7624C233.644 78.8904 238.099 78.8904 242.554 87.7624C247.009 96.6344 251.464 96.6344 255.919 87.7624C260.374 78.8904 264.829 78.8904 269.284 87.7624C273.739 96.6344 278.194 96.6344 282.649 87.7624C287.104 78.8904 291.559 78.8904 296.014 87.7624C300.469 96.6344 304.924 96.6344 309.378 87.7624C313.833 78.8904 318.288 78.8904 322.743 87.7624C327.198 96.6344 331.653 96.6344 336.108 87.7624C340.563 78.8904 345.018 78.8904 349.473 87.7624C353.928 96.6344 358.383 96.6344 362.838 87.7624" stroke="white" stroke-width="3.1635"/>
<path d="M149 97.287C153.455 88.4151 157.91 88.4151 162.365 97.287C166.82 106.159 171.275 106.159 175.73 97.287C180.185 88.4151 184.64 88.4151 189.095 97.287C193.55 106.159 198.005 106.159 202.459 97.287C206.914 88.4151 211.369 88.4151 215.824 97.287C220.279 106.159 224.734 106.159 229.189 97.287C233.644 88.4151 238.099 88.4151 242.554 97.287C247.009 106.159 251.464 106.159 255.919 97.287C260.374 88.4151 264.829 88.4151 269.284 97.287C273.739 106.159 278.194 106.159 282.649 97.287C287.104 88.4151 291.559 88.4151 296.014 97.287C300.469 106.159 304.924 106.159 309.378 97.287C313.833 88.4151 318.288 88.4151 322.743 97.287C327.198 106.159 331.653 106.159 336.108 97.287C340.563 88.4151 345.018 88.4151 349.473 97.287C353.928 106.159 358.383 106.159 362.838 97.287" stroke="white" stroke-width="3.1635"/>
<path d="M149 106.812C153.455 97.9397 157.91 97.9397 162.365 106.812C166.82 115.684 171.275 115.684 175.73 106.812C180.185 97.9397 184.64 97.9397 189.095 106.812C193.55 115.684 198.005 115.684 202.459 106.812C206.914 97.9397 211.369 97.9397 215.824 106.812C220.279 115.684 224.734 115.684 229.189 106.812C233.644 97.9397 238.099 97.9397 242.554 106.812C247.009 115.684 251.464 115.684 255.919 106.812C260.374 97.9397 264.829 97.9397 269.284 106.812C273.739 115.684 278.194 115.684 282.649 106.812C287.104 97.9397 291.559 97.9397 296.014 106.812C300.469 115.684 304.924 115.684 309.378 106.812C313.833 97.9397 318.288 97.9397 322.743 106.812C327.198 115.684 331.653 115.684 336.108 106.812C340.563 97.9397 345.018 97.9397 349.473 106.812C353.928 115.684 358.383 115.684 362.838 106.812" stroke="white" stroke-width="3.1635"/>
<path d="M149 116.336C153.455 107.464 157.91 107.464 162.365 116.336C166.82 125.208 171.275 125.208 175.73 116.336C180.185 107.464 184.64 107.464 189.095 116.336C193.55 125.208 198.005 125.208 202.459 116.336C206.914 107.464 211.369 107.464 215.824 116.336C220.279 125.208 224.734 125.208 229.189 116.336C233.644 107.464 238.099 107.464 242.554 116.336C247.009 125.208 251.464 125.208 255.919 116.336C260.374 107.464 264.829 107.464 269.284 116.336C273.739 125.208 278.194 125.208 282.649 116.336C287.104 107.464 291.559 107.464 296.014 116.336C300.469 125.208 304.924 125.208 309.378 116.336C313.833 107.464 318.288 107.464 322.743 116.336C327.198 125.208 331.653 125.208 336.108 116.336C340.563 107.464 345.018 107.464 349.473 116.336C353.928 125.208 358.383 125.208 362.838 116.336" stroke="white" stroke-width="3.1635"/>
<path d="M149 125.862C153.455 116.99 157.91 116.99 162.365 125.862C166.82 134.733 171.275 134.733 175.73 125.862C180.185 116.99 184.64 116.99 189.095 125.862C193.55 134.733 198.005 134.733 202.459 125.862C206.914 116.99 211.369 116.99 215.824 125.862C220.279 134.733 224.734 134.733 229.189 125.862C233.644 116.99 238.099 116.99 242.554 125.862C247.009 134.733 251.464 134.733 255.919 125.862C260.374 116.99 264.829 116.99 269.284 125.862C273.739 134.733 278.194 134.733 282.649 125.862C287.104 116.99 291.559 116.99 296.014 125.862C300.469 134.733 304.924 134.733 309.378 125.862C313.833 116.99 318.288 116.99 322.743 125.862C327.198 134.733 331.653 134.733 336.108 125.862C340.563 116.99 345.018 116.99 349.473 125.862C353.928 134.733 358.383 134.733 362.838 125.862" stroke="white" stroke-width="3.1635"/>
<path d="M149 135.387C153.455 126.515 157.91 126.515 162.365 135.387C166.82 144.259 171.275 144.259 175.73 135.387C180.185 126.515 184.64 126.515 189.095 135.387C193.55 144.259 198.005 144.259 202.459 135.387C206.914 126.515 211.369 126.515 215.824 135.387C220.279 144.259 224.734 144.259 229.189 135.387C233.644 126.515 238.099 126.515 242.554 135.387C247.009 144.259 251.464 144.259 255.919 135.387C260.374 126.515 264.829 126.515 269.284 135.387C273.739 144.259 278.194 144.259 282.649 135.387C287.104 126.515 291.559 126.515 296.014 135.387C300.469 144.259 304.924 144.259 309.378 135.387C313.833 126.515 318.288 126.515 322.743 135.387C327.198 144.259 331.653 144.259 336.108 135.387C340.563 126.515 345.018 126.515 349.473 135.387C353.928 144.259 358.383 144.259 362.838 135.387" stroke="white" stroke-width="3.1635"/>
<path d="M149 144.911C153.455 136.039 157.91 136.039 162.365 144.911C166.82 153.783 171.275 153.783 175.73 144.911C180.185 136.039 184.64 136.039 189.095 144.911C193.55 153.783 198.005 153.783 202.459 144.911C206.914 136.039 211.369 136.039 215.824 144.911C220.279 153.783 224.734 153.783 229.189 144.911C233.644 136.039 238.099 136.039 242.554 144.911C247.009 153.783 251.464 153.783 255.919 144.911C260.374 136.039 264.829 136.039 269.284 144.911C273.739 153.783 278.194 153.783 282.649 144.911C287.104 136.039 291.559 136.039 296.014 144.911C300.469 153.783 304.924 153.783 309.378 144.911C313.833 136.039 318.288 136.039 322.743 144.911C327.198 153.783 331.653 153.783 336.108 144.911C340.563 136.039 345.018 136.039 349.473 144.911C353.928 153.783 358.383 153.783 362.838 144.911" stroke="white" stroke-width="3.1635"/>
<path d="M149 154.436C153.455 145.564 157.91 145.564 162.365 154.436C166.82 163.308 171.275 163.308 175.73 154.436C180.185 145.564 184.64 145.564 189.095 154.436C193.55 163.308 198.005 163.308 202.459 154.436C206.914 145.564 211.369 145.564 215.824 154.436C220.279 163.308 224.734 163.308 229.189 154.436C233.644 145.564 238.099 145.564 242.554 154.436C247.009 163.308 251.464 163.308 255.919 154.436C260.374 145.564 264.829 145.564 269.284 154.436C273.739 163.308 278.194 163.308 282.649 154.436C287.104 145.564 291.559 145.564 296.014 154.436C300.469 163.308 304.924 163.308 309.378 154.436C313.833 145.564 318.288 145.564 322.743 154.436C327.198 163.308 331.653 163.308 336.108 154.436C340.563 145.564 345.018 145.564 349.473 154.436C353.928 163.308 358.383 163.308 362.838 154.436" stroke="white" stroke-width="3.1635"/>
<path d="M149 163.961C153.455 155.089 157.91 155.089 162.365 163.961C166.82 172.833 171.275 172.833 175.73 163.961C180.185 155.089 184.64 155.089 189.095 163.961C193.55 172.833 198.005 172.833 202.459 163.961C206.914 155.089 211.369 155.089 215.824 163.961C220.279 172.833 224.734 172.833 229.189 163.961C233.644 155.089 238.099 155.089 242.554 163.961C247.009 172.833 251.464 172.833 255.919 163.961C260.374 155.089 264.829 155.089 269.284 163.961C273.739 172.833 278.194 172.833 282.649 163.961C287.104 155.089 291.559 155.089 296.014 163.961C300.469 172.833 304.924 172.833 309.378 163.961C313.833 155.089 318.288 155.089 322.743 163.961C327.198 172.833 331.653 172.833 336.108 163.961C340.563 155.089 345.018 155.089 349.473 163.961C353.928 172.833 358.383 172.833 362.838 163.961" stroke="white" stroke-width="3.1635"/>
<path d="M149 173.486C153.455 164.614 157.91 164.614 162.365 173.486C166.82 182.358 171.275 182.358 175.73 173.486C180.185 164.614 184.64 164.614 189.095 173.486C193.55 182.358 198.005 182.358 202.459 173.486C206.914 164.614 211.369 164.614 215.824 173.486C220.279 182.358 224.734 182.358 229.189 173.486C233.644 164.614 238.099 164.614 242.554 173.486C247.009 182.358 251.464 182.358 255.919 173.486C260.374 164.614 264.829 164.614 269.284 173.486C273.739 182.358 278.194 182.358 282.649 173.486C287.104 164.614 291.559 164.614 296.014 173.486C300.469 182.358 304.924 182.358 309.378 173.486C313.833 164.614 318.288 164.614 322.743 173.486C327.198 182.358 331.653 182.358 336.108 173.486C340.563 164.614 345.018 164.614 349.473 173.486C353.928 182.358 358.383 182.358 362.838 173.486" stroke="white" stroke-width="3.1635"/>
<path d="M149 183.011C153.455 174.139 157.91 174.139 162.365 183.011C166.82 191.883 171.275 191.883 175.73 183.011C180.185 174.139 184.64 174.139 189.095 183.011C193.55 191.883 198.005 191.883 202.459 183.011C206.914 174.139 211.369 174.139 215.824 183.011C220.279 191.883 224.734 191.883 229.189 183.011C233.644 174.139 238.099 174.139 242.554 183.011C247.009 191.883 251.464 191.883 255.919 183.011C260.374 174.139 264.829 174.139 269.284 183.011C273.739 191.883 278.194 191.883 282.649 183.011C287.104 174.139 291.559 174.139 296.014 183.011C300.469 191.883 304.924 191.883 309.378 183.011C313.833 174.139 318.288 174.139 322.743 183.011C327.198 191.883 331.653 191.883 336.108 183.011C340.563 174.139 345.018 174.139 349.473 183.011C353.928 191.883 358.383 191.883 362.838 183.011" stroke="white" stroke-width="3.1635"/>
<path d="M149 192.536C153.455 183.664 157.91 183.664 162.365 192.536C166.82 201.408 171.275 201.408 175.73 192.536C180.185 183.664 184.64 183.664 189.095 192.536C193.55 201.408 198.005 201.408 202.459 192.536C206.914 183.664 211.369 183.664 215.824 192.536C220.279 201.408 224.734 201.408 229.189 192.536C233.644 183.664 238.099 183.664 242.554 192.536C247.009 201.408 251.464 201.408 255.919 192.536C260.374 183.664 264.829 183.664 269.284 192.536C273.739 201.408 278.194 201.408 282.649 192.536C287.104 183.664 291.559 183.664 296.014 192.536C300.469 201.408 304.924 201.408 309.378 192.536C313.833 183.664 318.288 183.664 322.743 192.536C327.198 201.408 331.653 201.408 336.108 192.536C340.563 183.664 345.018 183.664 349.473 192.536C353.928 201.408 358.383 201.408 362.838 192.536" stroke="white" stroke-width="3.1635"/>
<path d="M149 202.06C153.455 193.188 157.91 193.188 162.365 202.06C166.82 210.932 171.275 210.932 175.73 202.06C180.185 193.188 184.64 193.188 189.095 202.06C193.55 210.932 198.005 210.932 202.459 202.06C206.914 193.188 211.369 193.188 215.824 202.06C220.279 210.932 224.734 210.932 229.189 202.06C233.644 193.188 238.099 193.188 242.554 202.06C247.009 210.932 251.464 210.932 255.919 202.06C260.374 193.188 264.829 193.188 269.284 202.06C273.739 210.932 278.194 210.932 282.649 202.06C287.104 193.188 291.559 193.188 296.014 202.06C300.469 210.932 304.924 210.932 309.378 202.06C313.833 193.188 318.288 193.188 322.743 202.06C327.198 210.932 331.653 210.932 336.108 202.06C340.563 193.188 345.018 193.188 349.473 202.06C353.928 210.932 358.383 210.932 362.838 202.06" stroke="white" stroke-width="3.1635"/>
<path d="M149 211.585C153.455 202.713 157.91 202.713 162.365 211.585C166.82 220.457 171.275 220.457 175.73 211.585C180.185 202.713 184.64 202.713 189.095 211.585C193.55 220.457 198.005 220.457 202.459 211.585C206.914 202.713 211.369 202.713 215.824 211.585C220.279 220.457 224.734 220.457 229.189 211.585C233.644 202.713 238.099 202.713 242.554 211.585C247.009 220.457 251.464 220.457 255.919 211.585C260.374 202.713 264.829 202.713 269.284 211.585C273.739 220.457 278.194 220.457 282.649 211.585C287.104 202.713 291.559 202.713 296.014 211.585C300.469 220.457 304.924 220.457 309.378 211.585C313.833 202.713 318.288 202.713 322.743 211.585C327.198 220.457 331.653 220.457 336.108 211.585C340.563 202.713 345.018 202.713 349.473 211.585C353.928 220.457 358.383 220.457 362.838 211.585" stroke="white" stroke-width="3.1635"/>
<path d="M149 221.11C153.455 212.238 157.91 212.238 162.365 221.11C166.82 229.982 171.275 229.982 175.73 221.11C180.185 212.238 184.64 212.238 189.095 221.11C193.55 229.982 198.005 229.982 202.459 221.11C206.914 212.238 211.369 212.238 215.824 221.11C220.279 229.982 224.734 229.982 229.189 221.11C233.644 212.238 238.099 212.238 242.554 221.11C247.009 229.982 251.464 229.982 255.919 221.11C260.374 212.238 264.829 212.238 269.284 221.11C273.739 229.982 278.194 229.982 282.649 221.11C287.104 212.238 291.559 212.238 296.014 221.11C300.469 229.982 304.924 229.982 309.378 221.11C313.833 212.238 318.288 212.238 322.743 221.11C327.198 229.982 331.653 229.982 336.108 221.11C340.563 212.238 345.018 212.238 349.473 221.11C353.928 229.982 358.383 229.982 362.838 221.11" stroke="white" stroke-width="3.1635"/>
<path d="M149 230.635C153.455 221.763 157.91 221.763 162.365 230.635C166.82 239.507 171.275 239.507 175.73 230.635C180.185 221.763 184.64 221.763 189.095 230.635C193.55 239.507 198.005 239.507 202.459 230.635C206.914 221.763 211.369 221.763 215.824 230.635C220.279 239.507 224.734 239.507 229.189 230.635C233.644 221.763 238.099 221.763 242.554 230.635C247.009 239.507 251.464 239.507 255.919 230.635C260.374 221.763 264.829 221.763 269.284 230.635C273.739 239.507 278.194 239.507 282.649 230.635C287.104 221.763 291.559 221.763 296.014 230.635C300.469 239.507 304.924 239.507 309.378 230.635C313.833 221.763 318.288 221.763 322.743 230.635C327.198 239.507 331.653 239.507 336.108 230.635C340.563 221.763 345.018 221.763 349.473 230.635C353.928 239.507 358.383 239.507 362.838 230.635" stroke="white" stroke-width="3.1635"/>
<path d="M149 240.16C153.455 231.288 157.91 231.288 162.365 240.16C166.82 249.032 171.275 249.032 175.73 240.16C180.185 231.288 184.64 231.288 189.095 240.16C193.55 249.032 198.005 249.032 202.459 240.16C206.914 231.288 211.369 231.288 215.824 240.16C220.279 249.032 224.734 249.032 229.189 240.16C233.644 231.288 238.099 231.288 242.554 240.16C247.009 249.032 251.464 249.032 255.919 240.16C260.374 231.288 264.829 231.288 269.284 240.16C273.739 249.032 278.194 249.032 282.649 240.16C287.104 231.288 291.559 231.288 296.014 240.16C300.469 249.032 304.924 249.032 309.378 240.16C313.833 231.288 318.288 231.288 322.743 240.16C327.198 249.032 331.653 249.032 336.108 240.16C340.563 231.288 345.018 231.288 349.473 240.16C353.928 249.032 358.383 249.032 362.838 240.16" stroke="white" stroke-width="3.1635"/>
<path d="M149 249.685C153.455 240.813 157.91 240.813 162.365 249.685C166.82 258.557 171.275 258.557 175.73 249.685C180.185 240.813 184.64 240.813 189.095 249.685C193.55 258.557 198.005 258.557 202.459 249.685C206.914 240.813 211.369 240.813 215.824 249.685C220.279 258.557 224.734 258.557 229.189 249.685C233.644 240.813 238.099 240.813 242.554 249.685C247.009 258.557 251.464 258.557 255.919 249.685C260.374 240.813 264.829 240.813 269.284 249.685C273.739 258.557 278.194 258.557 282.649 249.685C287.104 240.813 291.559 240.813 296.014 249.685C300.469 258.557 304.924 258.557 309.378 249.685C313.833 240.813 318.288 240.813 322.743 249.685C327.198 258.557 331.653 258.557 336.108 249.685C340.563 240.813 345.018 240.813 349.473 249.685C353.928 258.557 358.383 258.557 362.838 249.685" stroke="white" stroke-width="3.1635"/>
<path d="M149 259.21C153.455 250.338 157.91 250.338 162.365 259.21C166.82 268.082 171.275 268.082 175.73 259.21C180.185 250.338 184.64 250.338 189.095 259.21C193.55 268.082 198.005 268.082 202.459 259.21C206.914 250.338 211.369 250.338 215.824 259.21C220.279 268.082 224.734 268.082 229.189 259.21C233.644 250.338 238.099 250.338 242.554 259.21C247.009 268.082 251.464 268.082 255.919 259.21C260.374 250.338 264.829 250.338 269.284 259.21C273.739 268.082 278.194 268.082 282.649 259.21C287.104 250.338 291.559 250.338 296.014 259.21C300.469 268.082 304.924 268.082 309.378 259.21C313.833 250.338 318.288 250.338 322.743 259.21C327.198 268.082 331.653 268.082 336.108 259.21C340.563 250.338 345.018 250.338 349.473 259.21C353.928 268.082 358.383 268.082 362.838 259.21" stroke="white" stroke-width="3.1635"/>
<path d="M149 268.734C153.455 259.862 157.91 259.862 162.365 268.734C166.82 277.606 171.275 277.606 175.73 268.734C180.185 259.862 184.64 259.862 189.095 268.734C193.55 277.606 198.005 277.606 202.459 268.734C206.914 259.862 211.369 259.862 215.824 268.734C220.279 277.606 224.734 277.606 229.189 268.734C233.644 259.862 238.099 259.862 242.554 268.734C247.009 277.606 251.464 277.606 255.919 268.734C260.374 259.862 264.829 259.862 269.284 268.734C273.739 277.606 278.194 277.606 282.649 268.734C287.104 259.862 291.559 259.862 296.014 268.734C300.469 277.606 304.924 277.606 309.378 268.734C313.833 259.862 318.288 259.862 322.743 268.734C327.198 277.606 331.653 277.606 336.108 268.734C340.563 259.862 345.018 259.862 349.473 268.734C353.928 277.606 358.383 277.606 362.838 268.734" stroke="white" stroke-width="3.1635"/>
<path d="M149 278.259C153.455 269.387 157.91 269.387 162.365 278.259C166.82 287.131 171.275 287.131 175.73 278.259C180.185 269.387 184.64 269.387 189.095 278.259C193.55 287.131 198.005 287.131 202.459 278.259C206.914 269.387 211.369 269.387 215.824 278.259C220.279 287.131 224.734 287.131 229.189 278.259C233.644 269.387 238.099 269.387 242.554 278.259C247.009 287.131 251.464 287.131 255.919 278.259C260.374 269.387 264.829 269.387 269.284 278.259C273.739 287.131 278.194 287.131 282.649 278.259C287.104 269.387 291.559 269.387 296.014 278.259C300.469 287.131 304.924 287.131 309.378 278.259C313.833 269.387 318.288 269.387 322.743 278.259C327.198 287.131 331.653 287.131 336.108 278.259C340.563 269.387 345.018 269.387 349.473 278.259C353.928 287.131 358.383 287.131 362.838 278.259" stroke="white" stroke-width="3.1635"/>
<path d="M149 287.785C153.455 278.913 157.91 278.913 162.365 287.785C166.82 296.657 171.275 296.657 175.73 287.785C180.185 278.913 184.64 278.913 189.095 287.785C193.55 296.657 198.005 296.657 202.459 287.785C206.914 278.913 211.369 278.913 215.824 287.785C220.279 296.657 224.734 296.657 229.189 287.785C233.644 278.913 238.099 278.913 242.554 287.785C247.009 296.657 251.464 296.657 255.919 287.785C260.374 278.913 264.829 278.913 269.284 287.785C273.739 296.657 278.194 296.657 282.649 287.785C287.104 278.913 291.559 278.913 296.014 287.785C300.469 296.657 304.924 296.657 309.378 287.785C313.833 278.913 318.288 278.913 322.743 287.785C327.198 296.657 331.653 296.657 336.108 287.785C340.563 278.913 345.018 278.913 349.473 287.785C353.928 296.657 358.383 296.657 362.838 287.785" stroke="white" stroke-width="3.1635"/>
</g>
</svg>
